<?xml version="1.0" encoding="utf-8"?>
<!-- Generator: Adobe Illustrator 24.3.0, SVG Export Plug-In . SVG Version: 6.00 Build 0)  -->
<svg version="1.1" id="Layer_1" xmlns="http://www.w3.org/2000/svg" xmlns:xlink="http://www.w3.org/1999/xlink" x="0px" y="0px"
	 viewBox="0 0 106 47" style="enable-background:new 0 0 106 47;" xml:space="preserve">
<style type="text/css">
	.st0{fill:none;stroke:#ED1C24;stroke-width:3;stroke-miterlimit:10;}
</style>
<path class="st0" d="M106,45c-5.3,0-5.3-8-10.6-8c-5.3,0-5.3,8-10.6,8c-5.3,0-5.3-8-10.6-8c-5.3,0-5.3,8-10.6,8c-5.3,0-5.3-8-10.6-8
	c-5.3,0-5.3,8-10.6,8c-5.3,0-5.3-8-10.6-8c-5.3,0-5.3,8-10.6,8c-5.3,0-5.3-8-10.6-8C5.3,37,5.3,45,0,45 M106,27.5
	c-5.3,0-5.3-8-10.6-8c-5.3,0-5.3,8-10.6,8c-5.3,0-5.3-8-10.6-8c-5.3,0-5.3,8-10.6,8c-5.3,0-5.3-8-10.6-8c-5.3,0-5.3,8-10.6,8
	c-5.3,0-5.3-8-10.6-8c-5.3,0-5.3,8-10.6,8c-5.3,0-5.3-8-10.6-8c-5.3,0-5.3,8-10.6,8 M106,10c-5.3,0-5.3-8-10.6-8
	c-5.3,0-5.3,8-10.6,8c-5.3,0-5.3-8-10.6-8c-5.3,0-5.3,8-10.6,8c-5.3,0-5.3-8-10.6-8c-5.3,0-5.3,8-10.6,8c-5.3,0-5.3-8-10.6-8
	c-5.3,0-5.3,8-10.6,8c-5.3,0-5.3-8-10.6-8C5.3,2,5.3,10,0,10"/>
</svg>
