<?xml version="1.0" encoding="utf-8"?>
<!-- Generator: Adobe Illustrator 24.3.0, SVG Export Plug-In . SVG Version: 6.00 Build 0)  -->
<svg version="1.1" id="Layer_1" xmlns="http://www.w3.org/2000/svg" xmlns:xlink="http://www.w3.org/1999/xlink" x="0px" y="0px"
	 viewBox="0 0 157 52" style="enable-background:new 0 0 157 52;" xml:space="preserve">
<style type="text/css">
	.st0{fill:#1C1B3C;}
	.st1{fill:#FFFFFF;}
	.st2{fill:#B2BBCC;}
	.st3{font-family:'Araboto-Medium';}
	.st4{font-size:14px;}
	.st5{font-size:18px;}
</style>
<rect class="st0" width="157" height="52"/>
<path class="st1" d="M13.8,32.6V17c0-0.5,0.3-1,0.8-1.2l9.3,9l-9.3,9C14.1,33.6,13.8,33.1,13.8,32.6z M26.9,27.6l-10.2,5.7l8.1-7.7
	L26.9,27.6z M30.1,23.7c0.3,0.2,0.6,0.6,0.6,1.1c0,0.5-0.2,0.8-0.5,1.1l-2.2,1.2l-2.4-2.3l2.4-2.3L30.1,23.7z M16.7,16.3L26.9,22
	L24.7,24L16.7,16.3z"/>
<text transform="matrix(1 0 0 1 45.1274 20.7022)"><tspan x="0" y="0" class="st2 st3 st4">Get it on</tspan><tspan x="0" y="17.6" class="st1 st3 st5">Play Store</tspan></text>
</svg>
